<?xml version="1.0" standalone="no"?>
<!DOCTYPE svg PUBLIC "-//W3C//DTD SVG 20010904//EN"
 "http://www.w3.org/TR/2001/REC-SVG-20010904/DTD/svg10.dtd">
<svg version="1.0" xmlns="http://www.w3.org/2000/svg"
 width="219.000000pt" height="219.000000pt" viewBox="0 0 219.000000 219.000000"
 preserveAspectRatio="xMidYMid meet">
<metadata>
Created by potrace 1.14, written by Peter Selinger 2001-2017
</metadata>
<g transform="translate(0.000000,219.000000) scale(0.100000,-0.100000)"
fill="#000000" stroke="none">
<path d="M1037 1849 c-26 -16 -49 -29 -52 -29 -2 0 -21 -11 -41 -25 -24 -16
-44 -23 -59 -19 -20 5 -39 -2 -115 -45 -8 -4 -37 -19 -65 -32 -27 -13 -65 -34
-84 -47 -18 -13 -55 -34 -80 -48 -87 -45 -155 -138 -88 -120 14 3 11 -3 -14
-23 -29 -24 -35 -26 -47 -14 -12 12 -17 12 -32 -2 -10 -9 -20 -29 -23 -44 -4
-20 -17 -33 -44 -46 -58 -27 -64 -34 -52 -57 8 -15 14 -17 22 -9 6 6 25 11 42
11 l32 0 12 -217 c7 -120 15 -301 18 -403 5 -172 11 -210 34 -210 16 0 7 393
-15 658 -3 28 -1 52 4 52 12 0 98 58 106 71 3 6 11 3 19 -7 11 -16 18 -17 49
-7 32 10 36 9 25 -3 -6 -8 -21 -14 -33 -14 -26 0 -40 -14 -101 -96 -51 -70
-62 -124 -24 -124 11 0 29 5 40 10 19 10 19 10 -1 -25 -35 -63 -17 -101 27
-57 10 10 27 24 38 32 15 11 14 7 -5 -15 -52 -62 -61 -103 -19 -92 16 4 16 2
-4 -27 -12 -17 -25 -33 -28 -36 -16 -15 -39 -57 -39 -72 0 -23 18 -23 44 -1
11 10 1 -6 -22 -36 -45 -58 -52 -81 -24 -81 10 0 23 -5 30 -12 11 -11 53 27
192 180 103 113 93 82 -17 -56 -24 -29 -43 -56 -43 -60 -1 -4 -30 -38 -65 -76
-36 -39 -65 -75 -65 -81 0 -22 -37 -45 -72 -45 -30 0 -134 30 -191 54 -12 6
-17 4 -17 -7 0 -27 29 -46 103 -68 90 -27 349 -36 567 -21 110 8 146 8 152 -1
6 -9 13 -8 30 3 21 13 54 16 241 19 39 1 48 16 22 35 -13 10 -13 13 5 24 17
10 20 10 20 -3 0 -18 29 -20 34 -3 3 7 7 25 10 40 4 17 17 31 36 40 17 7 33
21 36 31 3 10 23 29 44 42 21 13 41 29 45 35 6 10 80 60 89 60 3 0 6 -10 8
-22 2 -13 11 -24 21 -26 14 -3 17 4 17 38 0 51 13 76 48 94 15 8 52 37 82 65
30 28 58 51 61 51 4 0 9 -19 11 -42 3 -31 0 -46 -11 -55 -14 -11 -14 -15 -1
-40 9 -15 23 -29 33 -31 14 -3 17 4 17 40 0 43 -12 127 -26 183 -7 29 -7 30
13 13 23 -21 43 -23 43 -5 -1 31 -30 187 -43 227 -8 25 -18 59 -22 75 -3 17
-17 55 -30 85 -44 105 -55 159 -55 266 0 96 -1 104 -22 115 -13 7 -85 13 -183
15 -156 4 -204 9 -391 40 -79 14 -91 18 -87 34 8 30 -22 29 -70 -1z m126 -67
c42 -8 77 -18 77 -23 0 -4 -18 -13 -40 -19 -22 -6 -46 -20 -53 -30 -6 -11 -18
-20 -25 -20 -6 0 -52 -21 -100 -47 -55 -29 -79 -38 -65 -25 12 12 26 22 30 22
5 0 16 8 25 18 9 9 35 32 57 51 42 34 51 55 28 64 -16 6 -87 -22 -87 -34 0 -5
-8 -9 -17 -9 -10 0 -27 -7 -37 -15 -11 -8 -25 -15 -30 -15 -6 0 -3 7 8 15 10
8 24 24 30 36 6 12 13 21 16 19 3 -2 21 7 40 19 19 11 42 18 50 15 8 -4 50
-14 93 -22z m265 -38 c23 -5 22 -6 -15 -32 -36 -25 -69 -42 -163 -86 -32 -15
-31 -13 18 29 51 46 65 78 38 88 -7 3 -19 0 -25 -6 -9 -9 -11 -8 -5 6 5 15 15
17 68 12 33 -3 72 -8 84 -11z m185 -10 c43 -4 77 -11 77 -15 0 -5 -17 -18 -37
-29 -44 -24 -119 -76 -147 -102 -23 -21 -36 -23 -36 -5 0 8 11 20 25 27 28 15
33 45 9 54 -8 3 -25 1 -36 -5 -28 -15 -32 -6 -8 21 23 26 26 46 8 53 -19 8 58
8 145 1z m134 -51 c0 -16 6 -66 12 -113 6 -47 12 -94 14 -105 1 -15 -5 -21
-25 -23 -28 -3 -29 0 -68 146 -6 26 -17 42 -26 42 -23 0 -25 -20 -11 -77 10
-35 10 -51 3 -50 -6 1 -12 -11 -14 -28 -5 -43 -19 -53 -33 -22 -12 26 -33 35
-43 19 -2 -4 4 -41 14 -82 24 -97 43 -237 38 -275 -4 -29 -4 -28 -17 15 -7 25
-17 61 -23 80 -7 19 -15 55 -19 80 -14 94 -33 151 -49 147 -8 -1 -14 -12 -13
-22 15 -138 24 -258 27 -390 l5 -160 -20 220 c-28 311 -27 307 -47 303 -14 -3
-17 -15 -15 -73 5 -190 2 -517 -6 -570 l-8 -60 -3 85 c-1 47 -5 201 -9 342 -3
141 -9 260 -13 263 -4 4 -14 5 -23 1 -14 -5 -16 -34 -16 -213 0 -264 -7 -426
-19 -455 -6 -17 -9 3 -9 68 -1 50 -6 117 -12 150 -8 44 -8 110 1 262 l13 202
34 21 c18 12 40 33 47 47 8 15 41 47 75 71 34 25 61 48 61 52 0 4 12 12 28 18
15 6 58 34 97 61 38 28 69 50 70 50 0 0 1 -12 2 -27z m-457 -88 c0 -3 -10 -10
-22 -15 -65 -27 -123 -68 -126 -88 -2 -12 1 -22 6 -22 14 0 71 30 77 41 9 13
130 69 151 69 11 0 2 -11 -23 -29 -22 -16 -49 -40 -60 -54 -18 -23 -85 -51
-97 -40 -6 7 -161 -15 -245 -34 -35 -7 -66 -12 -69 -8 -3 3 1 5 9 5 8 0 22 8
30 18 9 9 27 25 40 36 13 10 37 30 53 45 l29 26 -23 -33 c-37 -50 -15 -59 56
-22 32 18 66 37 74 45 8 7 26 16 40 20 14 4 41 16 60 26 38 21 40 21 40 14z
m-543 -79 c-31 -30 -57 -59 -57 -66 0 -20 75 -3 136 31 32 18 54 26 54 19 0
-7 8 -10 20 -7 11 3 18 1 14 -4 -3 -5 -12 -9 -20 -9 -8 0 -14 -6 -14 -14 0 -7
-9 -16 -21 -19 -11 -3 -23 -14 -25 -24 -5 -16 -26 -21 -152 -37 -81 -10 -180
-24 -220 -32 -91 -17 -92 -17 -92 1 0 8 4 15 8 15 5 0 18 8 30 18 11 9 39 33
62 52 82 68 120 81 88 30 -10 -15 -10 -22 0 -32 15 -15 60 8 169 83 38 26 70
47 73 48 3 0 -21 -23 -53 -53z m663 -20 c0 -8 -61 -48 -66 -43 -3 2 10 14 28
26 35 22 38 23 38 17z m-134 -89 c3 -3 0 -24 -7 -47 -11 -37 -11 -44 4 -55 22
-16 12 -81 -14 -88 -10 -3 -20 0 -22 7 -3 7 -14 2 -31 -13 -14 -14 -26 -21
-26 -16 0 5 -10 -1 -22 -12 -13 -11 -31 -23 -40 -26 -9 -3 -45 -41 -80 -84
-35 -43 -85 -100 -113 -128 -27 -28 -73 -75 -101 -105 -28 -30 -59 -62 -69
-70 -17 -14 -18 -14 -4 9 8 13 19 32 25 42 6 11 50 65 97 122 147 175 257 317
257 332 0 27 -28 16 -63 -25 -19 -22 -36 -40 -39 -40 -2 0 -3 14 0 30 5 36 -3
38 -37 8 l-26 -23 20 25 c29 35 50 79 41 87 -3 4 -19 0 -35 -10 -16 -9 -44
-15 -67 -13 -33 2 -48 -4 -99 -43 -64 -50 -108 -78 -168 -110 l-39 -20 43 47
c24 26 56 59 71 74 50 47 28 81 -22 36 -36 -33 -69 -56 -52 -38 16 19 15 47
-2 53 -7 3 -25 -1 -40 -8 -26 -14 -26 -14 -10 11 9 13 19 24 23 24 28 1 320
40 333 45 63 25 295 41 314 22z m373 -46 c14 -60 34 -201 28 -207 -2 -3 -12
30 -22 73 -9 43 -23 100 -31 127 -17 60 -17 57 1 50 8 -3 19 -22 24 -43z
m-1145 -56 c-4 -8 -10 -15 -14 -15 -4 0 -10 7 -14 15 -4 10 1 15 14 15 13 0
18 -5 14 -15z m-53 -12 c-6 -10 -24 -34 -40 -53 l-30 -35 -1 32 c0 17 -3 38
-6 46 -6 15 12 23 64 26 19 1 21 -2 13 -16z m433 -47 c-3 -8 -38 -43 -77 -77
-77 -67 -56 -36 28 43 57 53 56 53 49 34z m903 -28 c-3 -7 -5 -2 -5 12 0 14 2
19 5 13 2 -7 2 -19 0 -25z m81 -13 c-3 -3 -9 2 -12 12 -6 14 -5 15 5 6 7 -7
10 -15 7 -18z m-44 -140 c4 -32 11 -64 16 -71 7 -8 6 -15 -4 -23 -12 -11 -16
-6 -21 26 -3 21 -10 60 -15 86 -6 27 -10 65 -9 85 l0 37 13 -41 c7 -22 16 -67
20 -99z m-251 -40 c8 -44 20 -93 26 -108 6 -16 11 -55 11 -87 0 -48 -4 -61
-19 -70 -11 -5 -25 -16 -33 -23 -11 -11 -13 26 -13 222 0 130 3 216 6 191 4
-25 14 -81 22 -125z m-333 126 c0 -21 -13 -42 -47 -78 -27 -27 -53 -58 -60
-68 -6 -11 -4 3 7 32 15 43 82 143 96 143 2 0 4 -13 4 -29z m-446 -76 c-48
-52 -89 -95 -92 -95 -15 0 159 188 176 190 2 0 -36 -43 -84 -95z m963 38 c-3
-10 -5 -4 -5 12 0 17 2 24 5 18 2 -7 2 -21 0 -30z m-807 14 c0 -2 -15 -16 -32
-33 l-33 -29 29 33 c28 30 36 37 36 29z m-341 -55 c-6 -9 -29 -30 -52 -47 -39
-28 -40 -28 -24 -5 9 14 31 35 49 47 41 27 41 27 27 5z m111 14 c0 -2 -8 -10
-17 -17 -16 -13 -17 -12 -4 4 13 16 21 21 21 13z m1047 -43 c-3 -10 -5 -2 -5
17 0 19 2 27 5 18 2 -10 2 -26 0 -35z m-86 -146 c1 -37 0 -70 -3 -72 -6 -7
-15 62 -23 170 l-5 80 14 -55 c8 -30 16 -85 17 -123z m-441 96 c-1 -61 -3 -70
-26 -87 -14 -10 -37 -19 -50 -20 -13 0 -24 -5 -24 -11 0 -9 -138 -145 -147
-145 -2 0 10 20 27 44 16 25 30 48 30 53 0 5 20 29 45 53 25 24 45 50 45 58 0
11 87 119 98 121 1 1 2 -29 2 -66z m37 -10 c-2 -16 -4 -3 -4 27 0 30 2 43 4
28 2 -16 2 -40 0 -55z m440 15 c-3 -7 -5 -2 -5 12 0 14 2 19 5 13 2 -7 2 -19
0 -25z m47 -93 c-14 -19 -30 -35 -35 -35 -5 0 -9 26 -8 58 0 44 2 52 9 35 16
-40 40 -28 41 20 l1 42 10 -42 c8 -39 7 -46 -18 -78z m-1074 61 c0 -2 -8 -10
-17 -17 -16 -13 -17 -12 -4 4 13 16 21 21 21 13z m420 0 c0 -2 -8 -10 -17 -17
-16 -13 -17 -12 -4 4 13 16 21 21 21 13z m-295 -36 c-16 -16 -31 -28 -33 -25
-4 4 48 54 57 55 3 0 -8 -13 -24 -30z m165 -62 c-15 -24 -45 -59 -64 -77 -20
-19 -36 -42 -36 -52 0 -9 -24 -43 -53 -76 -92 -103 -111 -131 -98 -147 6 -7 9
-28 7 -47 -4 -41 -8 -42 -136 -32 l-95 8 45 42 c29 27 48 39 54 33 20 -20 38
-7 112 83 83 100 275 306 286 306 4 1 -6 -18 -22 -41z m-200 19 c0 -2 -10 -12
-22 -23 l-23 -19 19 23 c18 21 26 27 26 19z m411 -106 c-28 -32 -51 -66 -51
-74 0 -9 -4 -19 -10 -22 -5 -3 -10 1 -10 9 0 24 -37 19 -61 -6 -57 -63 -88
-92 -129 -120 l-45 -31 45 49 c183 197 249 264 265 264 7 0 19 7 26 17 13 15
14 14 17 -6 2 -15 -13 -40 -47 -80z m122 -178 c5 -57 3 -63 -14 -63 -18 0 -19
8 -18 133 l1 132 13 -70 c7 -38 15 -98 18 -132z m-783 173 c0 -2 -8 -10 -17
-17 -16 -13 -17 -12 -4 4 13 16 21 21 21 13z m706 -82 c-3 -7 -23 -25 -46 -39
-23 -14 -44 -34 -47 -43 -7 -18 -17 -27 -68 -64 -21 -16 -17 -7 18 30 26 28
47 59 47 69 0 10 21 43 48 73 l47 54 3 -33 c2 -18 1 -39 -2 -47z m256 36 c3
-36 -5 -60 -21 -60 -4 0 -4 22 -3 50 5 60 18 66 24 10z m-543 -2 c-32 -46 -69
-91 -69 -83 0 8 81 115 87 115 2 0 -6 -15 -18 -32z m450 -95 c1 -17 -3 -35 -9
-38 -6 -4 -10 17 -9 57 1 47 3 57 9 38 4 -14 8 -39 9 -57z m-320 -10 c-32 -36
-69 -90 -69 -100 0 -5 -12 -23 -27 -40 -24 -27 -37 -32 -90 -38 l-62 -6 28 28
c15 16 40 34 54 40 15 7 46 30 69 51 47 42 110 92 117 92 3 0 -6 -12 -20 -27z
m171 -69 c0 -84 6 -78 -60 -58 -14 5 -20 2 -20 -10 0 -9 -8 -16 -20 -16 -31 0
-13 28 23 36 37 7 57 21 57 39 0 21 -31 27 -56 10 -13 -8 -26 -15 -30 -15 -8
0 89 89 99 90 4 0 7 -34 7 -76z m-368 45 c-5 -11 -23 -30 -42 -42 l-35 -21 35
41 c39 46 53 54 42 22z"/>
</g>
</svg>
